<svg xmlns="http://www.w3.org/2000/svg" xmlns:xlink="http://www.w3.org/1999/xlink" width="100" zoomAndPan="magnify" viewBox="0 0 75 74.999997" height="100" preserveAspectRatio="xMidYMid meet" version="1.2"><g id="386fa48468"><path style=" stroke:none;fill-rule:nonzero;fill:#436900;fill-opacity:1;" d="M 7.5 15 L 0 15 L 0 67.5 C 0 71.644531 3.355469 75 7.5 75 L 60 75 L 60 67.5 L 7.5 67.5 Z M 67.5 0 L 22.5 0 C 18.355469 0 15 3.355469 15 7.5 L 15 52.5 C 15 56.644531 18.355469 60 22.5 60 L 67.5 60 C 71.644531 60 75 56.644531 75 52.5 L 75 7.5 C 75 3.355469 71.644531 0 67.5 0 Z M 63.75 33.75 L 48.75 33.75 L 48.75 48.75 L 41.25 48.75 L 41.25 33.75 L 26.25 33.75 L 26.25 26.25 L 41.25 26.25 L 41.25 11.25 L 48.75 11.25 L 48.75 26.25 L 63.75 26.25 Z M 63.75 33.75 "/></g></svg>